<?xml version="1.0" encoding="UTF-8" standalone="no"?>
<!DOCTYPE svg PUBLIC "-//W3C//DTD SVG 1.1//EN"
 "http://www.w3.org/Graphics/SVG/1.1/DTD/svg11.dtd">
<!-- Generated by graphviz version 2.36.0 (20140111.2315)
 -->
<!-- Title: %3 Pages: 1 -->
<svg width="534pt" height="410pt"
 viewBox="0.00 0.00 534.00 410.00" xmlns="http://www.w3.org/2000/svg" xmlns:xlink="http://www.w3.org/1999/xlink">
<g id="graph0" class="graph" transform="scale(1 1) rotate(0) translate(4 406)">
<title>%3</title>
<polygon fill="white" stroke="none" points="-4,4 -4,-406 530,-406 530,4 -4,4"/>
<text text-anchor="middle" x="263" y="-7.8" font-family="Times,serif" font-size="14.00"> 图 5&#45;6 &#160;&#160;&#160;从表尾向表头方向遍历跳跃表</text>
<g id="clust1" class="cluster"><title>cluster_nodes</title>
</g>
<g id="clust2" class="cluster"><title>cluster_nulls</title>
</g>
<!-- l -->
<g id="node1" class="node"><title>l</title>
<polygon fill="none" stroke="black" points="0,-39 0,-161 54,-161 54,-39 0,-39"/>
<text text-anchor="middle" x="27" y="-145.8" font-family="Times,serif" font-size="14.00">header</text>
<polyline fill="none" stroke="black" points="0,-138 54,-138 "/>
<text text-anchor="middle" x="27" y="-122.8" font-family="Times,serif" font-size="14.00">tail</text>
<polyline fill="none" stroke="black" points="0,-115 54,-115 "/>
<text text-anchor="middle" x="27" y="-99.8" font-family="Times,serif" font-size="14.00">level </text>
<text text-anchor="middle" x="27" y="-84.8" font-family="Times,serif" font-size="14.00"> 5</text>
<polyline fill="none" stroke="black" points="0,-77 54,-77 "/>
<text text-anchor="middle" x="27" y="-61.8" font-family="Times,serif" font-size="14.00">length </text>
<text text-anchor="middle" x="27" y="-46.8" font-family="Times,serif" font-size="14.00"> 3</text>
</g>
<!-- header -->
<g id="node2" class="node"><title>header</title>
<polygon fill="none" stroke="black" points="100,-183.5 100,-344.5 138,-344.5 138,-183.5 100,-183.5"/>
<text text-anchor="middle" x="119" y="-329.3" font-family="Times,serif" font-size="14.00">L32</text>
<polyline fill="none" stroke="black" points="100,-321.5 138,-321.5 "/>
<text text-anchor="middle" x="119" y="-306.3" font-family="Times,serif" font-size="14.00">...</text>
<polyline fill="none" stroke="black" points="100,-298.5 138,-298.5 "/>
<text text-anchor="middle" x="119" y="-283.3" font-family="Times,serif" font-size="14.00">L5</text>
<polyline fill="none" stroke="black" points="100,-275.5 138,-275.5 "/>
<text text-anchor="middle" x="119" y="-260.3" font-family="Times,serif" font-size="14.00">L4</text>
<polyline fill="none" stroke="black" points="100,-252.5 138,-252.5 "/>
<text text-anchor="middle" x="119" y="-237.3" font-family="Times,serif" font-size="14.00">L3</text>
<polyline fill="none" stroke="black" points="100,-229.5 138,-229.5 "/>
<text text-anchor="middle" x="119" y="-214.3" font-family="Times,serif" font-size="14.00">L2</text>
<polyline fill="none" stroke="black" points="100,-206.5 138,-206.5 "/>
<text text-anchor="middle" x="119" y="-191.3" font-family="Times,serif" font-size="14.00">L1</text>
</g>
<!-- l&#45;&gt;header -->
<g id="edge1" class="edge"><title>l:header&#45;&gt;header</title>
<path fill="none" stroke="black" d="M54,-150C68.1725,-150 83.7478,-177.129 95.9847,-204.918"/>
<polygon fill="black" stroke="black" points="92.8564,-206.505 99.9997,-214.33 99.2949,-203.758 92.8564,-206.505"/>
</g>
<!-- C -->
<g id="node7" class="node"><title>C</title>
<polygon fill="none" stroke="black" points="372.5,-133 372.5,-317 411.5,-317 411.5,-133 372.5,-133"/>
<text text-anchor="middle" x="392" y="-301.8" font-family="Times,serif" font-size="14.00">L5</text>
<polyline fill="none" stroke="black" points="372.5,-294 411.5,-294 "/>
<text text-anchor="middle" x="392" y="-278.8" font-family="Times,serif" font-size="14.00">L4</text>
<polyline fill="none" stroke="black" points="372.5,-271 411.5,-271 "/>
<text text-anchor="middle" x="392" y="-255.8" font-family="Times,serif" font-size="14.00">L3</text>
<polyline fill="none" stroke="black" points="372.5,-248 411.5,-248 "/>
<text text-anchor="middle" x="392" y="-232.8" font-family="Times,serif" font-size="14.00">L2</text>
<polyline fill="none" stroke="black" points="372.5,-225 411.5,-225 "/>
<text text-anchor="middle" x="392" y="-209.8" font-family="Times,serif" font-size="14.00">L1</text>
<polyline fill="none" stroke="black" points="372.5,-202 411.5,-202 "/>
<text text-anchor="middle" x="392" y="-186.8" font-family="Times,serif" font-size="14.00">BW</text>
<polyline fill="none" stroke="black" points="372.5,-179 411.5,-179 "/>
<text text-anchor="middle" x="392" y="-163.8" font-family="Times,serif" font-size="14.00">3.0</text>
<polyline fill="none" stroke="black" points="372.5,-156 411.5,-156 "/>
<text text-anchor="middle" x="392" y="-140.8" font-family="Times,serif" font-size="14.00">o3</text>
</g>
<!-- l&#45;&gt;C -->
<g id="edge2" class="edge"><title>l:tail&#45;&gt;C</title>
<path fill="none" stroke="black" stroke-dasharray="5,2" d="M54,-127C87.0805,-127 84.9195,-89 118,-89 118,-89 118,-89 309,-89 337.239,-89 356.008,-110.77 368.364,-136.89"/>
<polygon fill="black" stroke="black" points="365.258,-138.523 372.472,-146.282 371.671,-135.718 365.258,-138.523"/>
</g>
<!-- level_null -->
<g id="node4" class="node"><title>level_null</title>
<text text-anchor="middle" x="217" y="-333.3" font-family="Times,serif" font-size="14.00">NULL</text>
</g>
<!-- header&#45;&gt;level_null -->
<g id="edge3" class="edge"><title>header:l32&#45;&gt;level_null</title>
<path fill="none" stroke="black" d="M139,-333C152.52,-333 167.357,-333.623 180.368,-334.377"/>
<polygon fill="black" stroke="black" points="180.152,-337.87 190.351,-335 180.588,-330.883 180.152,-337.87"/>
<text text-anchor="middle" x="168" y="-336.8" font-family="Times,serif" font-size="14.00">0</text>
</g>
<!-- A -->
<g id="node5" class="node"><title>A</title>
<polygon fill="none" stroke="black" points="197.5,-117.5 197.5,-278.5 236.5,-278.5 236.5,-117.5 197.5,-117.5"/>
<text text-anchor="middle" x="217" y="-263.3" font-family="Times,serif" font-size="14.00">L4</text>
<polyline fill="none" stroke="black" points="197.5,-255.5 236.5,-255.5 "/>
<text text-anchor="middle" x="217" y="-240.3" font-family="Times,serif" font-size="14.00">L3</text>
<polyline fill="none" stroke="black" points="197.5,-232.5 236.5,-232.5 "/>
<text text-anchor="middle" x="217" y="-217.3" font-family="Times,serif" font-size="14.00">L2</text>
<polyline fill="none" stroke="black" points="197.5,-209.5 236.5,-209.5 "/>
<text text-anchor="middle" x="217" y="-194.3" font-family="Times,serif" font-size="14.00">L1</text>
<polyline fill="none" stroke="black" points="197.5,-186.5 236.5,-186.5 "/>
<text text-anchor="middle" x="217" y="-171.3" font-family="Times,serif" font-size="14.00">BW</text>
<polyline fill="none" stroke="black" points="197.5,-163.5 236.5,-163.5 "/>
<text text-anchor="middle" x="217" y="-148.3" font-family="Times,serif" font-size="14.00">1.0</text>
<polyline fill="none" stroke="black" points="197.5,-140.5 236.5,-140.5 "/>
<text text-anchor="middle" x="217" y="-125.3" font-family="Times,serif" font-size="14.00">o1</text>
</g>
<!-- header&#45;&gt;A -->
<g id="edge5" class="edge"><title>header:l4&#45;&gt;A:l4</title>
<path fill="none" stroke="black" d="M139,-264C160.603,-264 168.351,-266.175 185.841,-266.821"/>
<polygon fill="black" stroke="black" points="185.94,-270.324 196,-267 186.063,-263.325 185.94,-270.324"/>
<text text-anchor="middle" x="168" y="-268.8" font-family="Times,serif" font-size="14.00">1</text>
</g>
<!-- header&#45;&gt;A -->
<g id="edge6" class="edge"><title>header:l3&#45;&gt;A:l3</title>
<path fill="none" stroke="black" d="M139,-241C160.603,-241 168.351,-243.175 185.841,-243.821"/>
<polygon fill="black" stroke="black" points="185.94,-247.324 196,-244 186.063,-240.325 185.94,-247.324"/>
<text text-anchor="middle" x="168" y="-245.8" font-family="Times,serif" font-size="14.00">1</text>
</g>
<!-- header&#45;&gt;A -->
<g id="edge7" class="edge"><title>header:l2&#45;&gt;A:l2</title>
<path fill="none" stroke="black" d="M139,-218C160.603,-218 168.351,-220.175 185.841,-220.821"/>
<polygon fill="black" stroke="black" points="185.94,-224.324 196,-221 186.063,-217.325 185.94,-224.324"/>
<text text-anchor="middle" x="168" y="-223.8" font-family="Times,serif" font-size="14.00">1</text>
</g>
<!-- header&#45;&gt;A -->
<g id="edge8" class="edge"><title>header:l1&#45;&gt;A:l1</title>
<path fill="none" stroke="black" d="M139,-195C160.603,-195 168.351,-197.175 185.841,-197.821"/>
<polygon fill="black" stroke="black" points="185.94,-201.324 196,-198 186.063,-194.325 185.94,-201.324"/>
<text text-anchor="middle" x="168" y="-200.8" font-family="Times,serif" font-size="14.00">1</text>
</g>
<!-- header&#45;&gt;C -->
<g id="edge4" class="edge"><title>header:l5&#45;&gt;C:l5</title>
<path fill="none" stroke="black" d="M139,-287C205.94,-287 221.24,-304.098 288,-309 305.73,-310.302 310.233,-309.605 328,-309 343.764,-308.463 349.957,-306.848 361.987,-306.237"/>
<polygon fill="black" stroke="black" points="362.086,-309.736 372,-306 361.92,-302.738 362.086,-309.736"/>
<text text-anchor="middle" x="266" y="-310.8" font-family="Times,serif" font-size="14.00">3</text>
</g>
<!-- bw_null -->
<g id="node3" class="node"><title>bw_null</title>
<text text-anchor="middle" x="119" y="-137.3" font-family="Times,serif" font-size="14.00">NULL</text>
</g>
<!-- bw_null&#45;&gt;A -->
<g id="edge20" class="edge"><title>bw_null&#45;&gt;A:backward</title>
<path fill="none" stroke="black" stroke-dasharray="5,2" d="M155.803,-140.729C161.444,-141.72 167.042,-143.371 172,-146 186.78,-153.839 179.27,-175 196,-175"/>
<polygon fill="black" stroke="black" points="156.065,-137.236 145.735,-139.588 155.277,-144.192 156.065,-137.236"/>
</g>
<!-- B -->
<g id="node6" class="node"><title>B</title>
<polygon fill="none" stroke="black" points="288.5,-117.5 288.5,-232.5 327.5,-232.5 327.5,-117.5 288.5,-117.5"/>
<text text-anchor="middle" x="308" y="-217.3" font-family="Times,serif" font-size="14.00">L2</text>
<polyline fill="none" stroke="black" points="288.5,-209.5 327.5,-209.5 "/>
<text text-anchor="middle" x="308" y="-194.3" font-family="Times,serif" font-size="14.00">L1</text>
<polyline fill="none" stroke="black" points="288.5,-186.5 327.5,-186.5 "/>
<text text-anchor="middle" x="308" y="-171.3" font-family="Times,serif" font-size="14.00">BW</text>
<polyline fill="none" stroke="black" points="288.5,-163.5 327.5,-163.5 "/>
<text text-anchor="middle" x="308" y="-148.3" font-family="Times,serif" font-size="14.00">2.0</text>
<polyline fill="none" stroke="black" points="288.5,-140.5 327.5,-140.5 "/>
<text text-anchor="middle" x="308" y="-125.3" font-family="Times,serif" font-size="14.00">o2</text>
</g>
<!-- A&#45;&gt;B -->
<g id="edge11" class="edge"><title>A:l2&#45;&gt;B:l2</title>
<path fill="none" stroke="black" d="M238,-221C256.403,-221 263.376,-221 277.849,-221"/>
<polygon fill="black" stroke="black" points="278,-224.5 288,-221 278,-217.5 278,-224.5"/>
<text text-anchor="middle" x="266" y="-225.8" font-family="Times,serif" font-size="14.00">1</text>
</g>
<!-- A&#45;&gt;B -->
<g id="edge12" class="edge"><title>A:l1&#45;&gt;B:l1</title>
<path fill="none" stroke="black" d="M238,-198C256.403,-198 263.376,-198 277.849,-198"/>
<polygon fill="black" stroke="black" points="278,-201.5 288,-198 278,-194.5 278,-201.5"/>
<text text-anchor="middle" x="266" y="-201.8" font-family="Times,serif" font-size="14.00">1</text>
</g>
<!-- A&#45;&gt;B -->
<g id="edge21" class="edge"><title>A:backward&#45;&gt;B:backward</title>
<path fill="none" stroke="black" stroke-dasharray="5,2" d="M248.151,-175C262.624,-175 269.597,-175 288,-175"/>
<polygon fill="black" stroke="black" points="248,-171.5 238,-175 248,-178.5 248,-171.5"/>
</g>
<!-- A&#45;&gt;C -->
<g id="edge9" class="edge"><title>A:l4&#45;&gt;C:l4</title>
<path fill="none" stroke="black" d="M238,-267C262.103,-267 264.372,-283.24 288,-288 321.082,-294.665 332.405,-285.231 361.778,-283.324"/>
<polygon fill="black" stroke="black" points="362.116,-286.816 372,-283 361.894,-279.819 362.116,-286.816"/>
<text text-anchor="middle" x="308" y="-293.8" font-family="Times,serif" font-size="14.00">2</text>
</g>
<!-- A&#45;&gt;C -->
<g id="edge10" class="edge"><title>A:l3&#45;&gt;C:l3</title>
<path fill="none" stroke="black" d="M238,-244C294.464,-244 310.218,-258.18 361.912,-259.842"/>
<polygon fill="black" stroke="black" points="361.946,-263.343 372,-260 362.056,-256.343 361.946,-263.343"/>
<text text-anchor="middle" x="308" y="-259.8" font-family="Times,serif" font-size="14.00">2</text>
</g>
<!-- B&#45;&gt;C -->
<g id="edge13" class="edge"><title>B:l2&#45;&gt;C:l2</title>
<path fill="none" stroke="black" d="M328,-221C344.907,-221 349.65,-231.562 361.996,-235.523"/>
<polygon fill="black" stroke="black" points="361.596,-239.002 372,-237 362.618,-232.077 361.596,-239.002"/>
<text text-anchor="middle" x="350" y="-234.8" font-family="Times,serif" font-size="14.00">1</text>
</g>
<!-- B&#45;&gt;C -->
<g id="edge14" class="edge"><title>B:l1&#45;&gt;C:l1</title>
<path fill="none" stroke="black" d="M328,-198C344.787,-198 349.703,-207.902 362.038,-211.616"/>
<polygon fill="black" stroke="black" points="361.613,-215.09 372,-213 362.577,-208.157 361.613,-215.09"/>
<text text-anchor="middle" x="350" y="-211.8" font-family="Times,serif" font-size="14.00">1</text>
</g>
<!-- B&#45;&gt;C -->
<g id="edge22" class="edge"><title>B:backward&#45;&gt;C:backward</title>
<path fill="none" stroke="black" stroke-dasharray="5,2" d="M337.962,-176.384C350.297,-180.098 355.213,-190 372,-190"/>
<polygon fill="black" stroke="black" points="338.387,-172.91 328,-175 337.423,-179.843 338.387,-172.91"/>
</g>
<!-- n1 -->
<g id="node8" class="node"><title>n1</title>
<text text-anchor="middle" x="483" y="-148.3" font-family="Times,serif" font-size="14.00">NULL</text>
</g>
<!-- C&#45;&gt;n1 -->
<g id="edge19" class="edge"><title>C:l1&#45;&gt;n1</title>
<path fill="none" stroke="black" d="M413,-213C423.843,-213 439.855,-186.158 448,-179 448.821,-178.278 449.658,-177.552 450.507,-176.824"/>
<polygon fill="black" stroke="black" points="452.901,-179.384 458.338,-170.291 448.417,-174.009 452.901,-179.384"/>
<text text-anchor="middle" x="434" y="-203.8" font-family="Times,serif" font-size="14.00">0</text>
</g>
<!-- n2 -->
<g id="node9" class="node"><title>n2</title>
<text text-anchor="middle" x="483" y="-202.3" font-family="Times,serif" font-size="14.00">NULL</text>
</g>
<!-- C&#45;&gt;n2 -->
<g id="edge18" class="edge"><title>C:l2&#45;&gt;n2</title>
<path fill="none" stroke="black" d="M413,-237C422.788,-237 421.422,-227.714 430,-223 435.226,-220.128 441.016,-217.643 446.779,-215.527"/>
<polygon fill="black" stroke="black" points="447.985,-218.814 456.349,-212.311 445.755,-212.179 447.985,-218.814"/>
<text text-anchor="middle" x="434" y="-226.8" font-family="Times,serif" font-size="14.00">0</text>
</g>
<!-- n3 -->
<g id="node10" class="node"><title>n3</title>
<text text-anchor="middle" x="483" y="-256.3" font-family="Times,serif" font-size="14.00">NULL</text>
</g>
<!-- C&#45;&gt;n3 -->
<g id="edge17" class="edge"><title>C:l3&#45;&gt;n3</title>
<path fill="none" stroke="black" d="M413,-260C423.781,-260 435.51,-260 446.188,-260"/>
<polygon fill="black" stroke="black" points="446.441,-263.5 456.441,-260 446.441,-256.5 446.441,-263.5"/>
<text text-anchor="middle" x="434" y="-263.8" font-family="Times,serif" font-size="14.00">0</text>
</g>
<!-- n4 -->
<g id="node11" class="node"><title>n4</title>
<text text-anchor="middle" x="483" y="-310.3" font-family="Times,serif" font-size="14.00">NULL</text>
</g>
<!-- C&#45;&gt;n4 -->
<g id="edge16" class="edge"><title>C:l4&#45;&gt;n4</title>
<path fill="none" stroke="black" d="M413,-283C424.782,-283 436.781,-286.808 447.397,-291.754"/>
<polygon fill="black" stroke="black" points="445.834,-294.886 456.331,-296.327 449.024,-288.655 445.834,-294.886"/>
<text text-anchor="middle" x="434" y="-290.8" font-family="Times,serif" font-size="14.00">0</text>
</g>
<!-- n5 -->
<g id="node12" class="node"><title>n5</title>
<text text-anchor="middle" x="483" y="-364.3" font-family="Times,serif" font-size="14.00">NULL</text>
</g>
<!-- C&#45;&gt;n5 -->
<g id="edge15" class="edge"><title>C:l5&#45;&gt;n5</title>
<path fill="none" stroke="black" d="M413,-306C434.999,-306 431.582,-326.358 448,-341 448.816,-341.727 449.648,-342.459 450.493,-343.192"/>
<polygon fill="black" stroke="black" points="448.392,-345.999 458.3,-349.752 452.895,-340.639 448.392,-345.999"/>
<text text-anchor="middle" x="434" y="-330.8" font-family="Times,serif" font-size="14.00">0</text>
</g>
</g>
</svg>
